PathFileType	4	(X/Y/Z)	7_coords_data.trc
DataRate	CameraRate	NumFrames	NumMarkers	Units	OrigDataRate	OrigDataStartFrame	OrigNumFrames
30.0	30.0	7	21	m	30.0	32	73
Frame#	Time	THUMB_TIP	THUMB_IP	THUMB_MCP	THUMB_CMC	INDEX_TIP	INDEX_DIP	INDEX_PIP	INDEX_MCP	MIDDLE_TIP	MIDDLE_DIP	MIDDLE_PIP	MIDDLE_MCP	RING_TIP	RING_DIP	RING_PIP	RING_MCP	PINKY_TIP	PINKY_DIP	PINKY_PIP	PINKY_MCP	WRIST
X1	Y1	Z1	X2	Y2	Z2	X3	Y3	Z3	X4	Y4	Z4	X5	Y5	Z5	X6	Y6	Z6	X7	Y7	Z7	X8	Y8	Z8	X9	Y9	Z9	X10	Y10	Z10	X11	Y11	Z11	X12	Y12	Z12	X13	Y13	Z13	X14	Y14	Z14	X15	Y15	Z15	X16	Y16	Z16	X17	Y17	Z17	X18	Y18	Z18	X19	Y19	Z19	X20	Y20	Z20	X21	Y21	Z21
30	1.0333333333333288	0.5064999755083944	-0.01854077390542197	-0.16481366269751152	0.4955938279892116	-0.021191818408815122	-0.14476302905837563	0.4734554904874271	-0.02521527591477435	-0.12325661600657123	0.4697185123813622	-0.029105935671479455	-0.07897583280107279	0.5700624092748507	0.029031818927825137	-0.15746355747905183	0.5537466755141104	0.03191320151095389	-0.1501495663484667	0.5311601010334843	0.03194485126241242	-0.13911074917793786	0.4976615134998449	0.01589135192688751	-0.11828370218765599	0.5952950892561294	0.03749171569930143	-0.13066113946209895	0.5784813455644928	0.03797261089143311	-0.12394796116220752	0.5512939811705784	0.036640945952520654	-0.11353242297145655	0.5118491857133051	0.022456768029046836	-0.098070691859802	0.6013089600752964	0.01663850509076803	-0.11170934519129128	0.5853575489422089	0.019650200801374584	-0.10386828838688505	0.5628908436669182	0.022398458302732127	-0.09348203719699644	0.5249263668974246	0.018083862751871238	-0.0802607058400161	0.5965538639478042	-0.028471195477074107	-0.08076002486548944	0.5818201718713742	-0.021105367369981587	-0.07610568344121582	0.5635919560326581	-0.012220048925352889	-0.07066552880419286	0.5309601879511252	0.0015099168968284449	-0.06377066104659335	0.462283081001861	-0.023011742144276925	-0.051989820119430985
31	1.0666666666666622	0.5067974541707172	-0.01849820647102718	-0.1646764634031676	0.49582636842355743	-0.02115952745486871	-0.14466265196832517	0.47362705118164616	-0.025219510213350227	-0.12322607448977674	0.4697925070869663	-0.029112542197451075	-0.07895384195563943	0.5702342243344505	0.02862440451044057	-0.1573258175101414	0.5539146385998575	0.03159060105025391	-0.15005444903244314	0.531302952733973	0.03174400226159624	-0.13906818654828035	0.4977015246022827	0.01583843364232862	-0.11829336986055422	0.5953594089583825	0.037251363900184575	-0.1306401911841752	0.578543652425127	0.03777212101822436	-0.12393503315186272	0.5513477497013852	0.036503341866147454	-0.11353394549219753	0.5118577675497581	0.022450663823659456	-0.09806748272599441	0.6012954217770783	0.016492188257137164	-0.11172648778333844	0.5853547256449353	0.0195419992609015	-0.10387837592990523	0.5628968418516184	0.022339593386636603	-0.09348622015578756	0.5249292725671652	0.018083484838703257	-0.08025481597261586	0.5964836638518438	-0.028579652158840174	-0.08081240402897494	0.5817782876624997	-0.021164602393416998	-0.07614668349446291	0.5635771086572092	-0.012243081827313929	-0.07067534246999962	0.5309582909368565	0.001513992585528534	-0.06377323517396893	0.4622830810018609	-0.023011742144276925	-0.051989820119430985
32	1.0999999999999952	0.5070630711705212	-0.018441505553280724	-0.16455625741064384	0.49603718600446	-0.021111908866940587	-0.14457379503867307	0.4737844358409232	-0.02521589189486828	-0.12320109204008878	0.46985279855319384	-0.029110263070564746	-0.07893749411376061	0.5703878044570638	0.028330579645925447	-0.1571682034175056	0.5540634285481977	0.03135636247882623	-0.1499322246009146	0.5314243810509264	0.03161602162871657	-0.13900446460436583	0.4977412470873689	0.015794656988959543	-0.11829777483200271	0.5954313092963119	0.037097358135018466	-0.13055705407787005	0.5786084075494174	0.03764036207580279	-0.12387161291556603	0.5513984172878297	0.036411720290168925	-0.11350260045888089	0.5118678244689707	0.02244752771023395	-0.09805975493158009	0.6013131559929279	0.016353730681865186	-0.11167028870678575	0.5853743142738805	0.019439805227811413	-0.10383259334705014	0.5629133729240049	0.022277665530045954	-0.09345797809719902	0.5249295873184016	0.018084144648468303	-0.08025315898888319	0.5963928465048489	-0.02874714502964415	-0.08085711916608679	0.5817126779405271	-0.021286786905667543	-0.07618424985643213	0.5635358067898966	-0.012320945262274341	-0.07070455481026622	0.5309560675516629	0.0015170867781110209	-0.06377975073953879	0.4622830810018609	-0.023011742144276925	-0.051989820119430985
33	1.1333333333333284	0.5072819748972048	-0.01841486341633025	-0.16446333611218544	0.496211961833808	-0.021094830365516626	-0.1445065681392021	0.4739253308056208	-0.025233474857415006	-0.1231758930635482	0.4699153390322617	-0.029116839950146578	-0.07891835764262639	0.5705220263501503	0.02812512066017747	-0.15704485759282572	0.5541937447554399	0.031198153747791557	-0.14983766064766924	0.5315373207161003	0.031513332587616905	-0.13894743819592115	0.4977936974244078	0.01574563389133332	-0.11829837867807452	0.5954972427759315	0.03703913849069107	-0.13047777015451423	0.5786666386248476	0.037574060705954704	-0.12381109016120928	0.5514442440238263	0.03636576614589804	-0.11347228914550017	0.5118977466289795	0.022434020665645926	-0.09804086235881421	0.6013498271243216	0.016351892184018113	-0.11161110272175662	0.5854046089335034	0.019434136010533787	-0.10378487822707788	0.5629350516372393	0.022260772450625965	-0.09342586763989108	0.5249444014640975	0.018070829321940596	-0.0802396737235126	0.5963854721427685	-0.02879982759106392	-0.08084542165995723	0.5817209575931352	-0.021306294730269237	-0.0761764840626244	0.5635416639170883	-0.012343494095942042	-0.07069985140839802	0.5309629779588038	0.0014985346137585953	-0.06377808043332922	0.462283081001861	-0.023011742144276925	-0.051989820119430985
34	1.1666666666666616	0.5074692269140185	-0.018380800355690896	-0.16439320191744616	0.49636582329510937	-0.021063069127052136	-0.14445530176939209	0.4740520448347957	-0.025229051148707993	-0.12315835634007583	0.46996051431576513	-0.029106787622736552	-0.07890779094425476	0.5706162506721604	0.028045435626177118	-0.15694611558025257	0.5542814535830674	0.03113854855696463	-0.14976231042869476	0.5316111149267521	0.0314691666636574	-0.13890154296614832	0.49783337237893344	0.015731528529669414	-0.11828536125524636	0.5955262815391662	0.03714357050227168	-0.13038718261176424	0.5786861525061229	0.03764484681010083	-0.12374197560116929	0.5514543022363845	0.036409956620875095	-0.11343125656188313	0.5119143848491584	0.022433836139395202	-0.0980231122771712	0.6013806262242677	0.01647571382939117	-0.11156506507038405	0.5854239660857422	0.019527482942722996	-0.1037502264602459	0.562942167544767	0.022313186087683512	-0.09340669846680183	0.524951078484568	0.018058739843631155	-0.08024244105605094	0.5964070615533683	-0.02885125432504665	-0.0808331116902925	0.5817280500462999	-0.021375384455648683	-0.0761814463034467	0.5635369117158137	-0.012432315310445752	-0.07071189243633524	0.5309719724358242	0.0014549647139256994	-0.06381612313804164	0.4622830810018609	-0.023011742144276925	-0.05198982011943104
35	1.1999999999999948	0.5076451890276807	-0.018313431504229705	-0.1643261577043471	0.49651465922807947	-0.021013514885162787	-0.14440579485332966	0.4741773888077402	-0.02521334717224699	-0.12314014746301966	0.47000969694540595	-0.029092924284949362	-0.07889685163227012	0.570718440606657	0.028170965105793866	-0.1568227929972456	0.5543732154788275	0.031238032151858608	-0.14965155075789027	0.5316923521191332	0.03153007208146619	-0.1388116714717359	0.49791632577947786	0.015723334669430433	-0.11824560254522848	0.5955787728693153	0.03749589764030459	-0.1301785356616747	0.578724865517297	0.03791503442615074	-0.12356263577395465	0.5514797052864269	0.03656504527794091	-0.11330162591654175	0.5119664842258664	0.02243756198114033	-0.09796319385462887	0.6014532635092451	0.016726598337623133	-0.11143448462027117	0.5854775962582104	0.019729676330491386	-0.10363964155238509	0.5629746759891878	0.02242431677869583	-0.09331794250518766	0.5249881817280083	0.01804376668904717	-0.08018181413121617	0.5965115836542872	-0.028758446695112627	-0.08075378222565183	0.5818025321647501	-0.021332237269508503	-0.07611748867959456	0.5635725708992834	-0.012453718966111138	-0.07067208290997351	0.5309919665323156	0.001407538500374117	-0.06379798576700785	0.4622830810018608	-0.023011742144276925	-0.05198982011943093
36	1.233333333333328	0.5078453931627759	-0.018305250455023958	-0.16424478326636893	0.49668627149049227	-0.021008109075309922	-0.14434079977607445	0.47431631145853037	-0.02523404689992803	-0.12311472294424125	0.4700777665885416	-0.029095678255040114	-0.07887658848241846	0.5708930091344974	0.028414782862503096	-0.15666723961230067	0.5545284782969383	0.03140393709042377	-0.1495071357395707	0.5318307757070755	0.031592378161218404	-0.13870025736952457	0.49807473943790126	0.015666341349780954	-0.1181934911477397	0.5957128336001276	0.03796544577840344	-0.12981136245775382	0.5788331455751723	0.03825925831874455	-0.12325470123642202	0.5515589562091677	0.03672253558026051	-0.11309760383350465	0.5120631617393819	0.022397670397530933	-0.09789798615090956	0.6016025555295043	0.01709165223494913	-0.11112907131863148	0.5855852691475902	0.02000626600027966	-0.10338623181631079	0.5630394265256743	0.022569052564363368	-0.09312479505069388	0.5250366806812612	0.01803353519428763	-0.08008864437379953	0.5967371675762554	-0.028417588512247405	-0.08049103337495384	0.5819721786885517	-0.021077828562803713	-0.0758950539330367	0.5636856015877454	-0.012287577874520839	-0.07049647914209295	0.5310120304507383	0.0013951512397207821	-0.06370647736438884	0.4622830810018609	-0.023011742144276925	-0.05198982011943104
